<?xml version="1.0" standalone="no"?>
<!DOCTYPE svg PUBLIC "-//W3C//DTD SVG 20010904//EN"
 "http://www.w3.org/TR/2001/REC-SVG-20010904/DTD/svg10.dtd">
<svg version="1.0" xmlns="http://www.w3.org/2000/svg"
 width="104.000000pt" height="122.000000pt" viewBox="0 0 104.000000 122.000000"
 preserveAspectRatio="xMidYMid meet">
<metadata>
Created by potrace 1.15, written by Peter Selinger 2001-2017
</metadata>
<g transform="translate(0.000000,122.000000) scale(0.100000,-0.100000)"
fill="#000000" stroke="none">
<path d="M348 1203 c-73 -46 -67 -165 10 -194 36 -14 106 -3 127 21 22 24 31
92 16 128 -23 56 -99 78 -153 45z"/>
<path d="M196 946 c-42 -44 -113 -213 -99 -235 18 -31 189 -111 236 -111 20 0
47 33 47 57 0 11 -8 27 -17 35 -17 15 -85 48 -125 61 -15 5 -15 10 5 49 l22
43 3 -42 c3 -38 6 -43 38 -53 57 -19 94 -57 94 -95 0 -19 -4 -37 -10 -40 -27
-16 -3 -25 70 -25 l80 0 0 30 c0 20 -5 30 -15 30 -27 0 -35 38 -35 161 0 112
2 125 22 146 l21 23 -153 0 -153 0 -31 -34z"/>
<path d="M527 943 c-16 -4 -17 -17 -15 -136 l3 -132 78 -3 77 -3 0 -29 c0 -29
-2 -30 -46 -30 -37 0 -47 -4 -51 -20 -5 -19 -14 -20 -277 -20 -198 0 -275 -3
-284 -12 -16 -16 -16 -100 0 -116 7 -7 20 -12 30 -12 17 0 18 -14 18 -199 0
-168 2 -202 16 -215 18 -19 38 -20 65 -6 18 10 19 23 19 215 l0 205 365 0 365
0 0 -203 c0 -214 3 -227 46 -227 47 0 54 29 54 237 0 191 0 192 23 195 20 3
22 8 22 68 l0 65 -81 3 c-72 2 -83 5 -87 22 -4 16 -14 20 -51 20 -44 0 -46 1
-46 30 l0 29 78 3 77 3 3 125 c2 109 0 126 -15 137 -12 10 -65 13 -192 12 -97
-1 -184 -3 -194 -6z"/>
<path d="M194 358 c27 -218 27 -218 86 -218 66 0 75 35 49 198 l-12 72 -65 0
-65 0 7 -52z"/>
<path d="M485 398 c-2 -7 -11 -57 -20 -112 -14 -89 -14 -100 0 -122 12 -18 24
-24 54 -24 21 0 44 6 50 14 6 8 18 54 26 102 8 49 18 104 21 122 l5 32 -66 0
c-44 0 -67 -4 -70 -12z"/>
</g>
</svg>
